<svg width="26" height="26" viewBox="0 0 26 26" fill="none" xmlns="http://www.w3.org/2000/svg">
<g clip-path="url(#clip0_164_9)">
<path d="M24.8979 22.0477L20.0298 17.1796C19.8101 16.9598 19.5122 16.8378 19.1997 16.8378H18.4038C19.7515 15.1141 20.5522 12.9462 20.5522 10.5878C20.5522 4.97742 16.0063 0.431519 10.396 0.431519C4.78564 0.431519 0.239746 4.97742 0.239746 10.5878C0.239746 16.1981 4.78564 20.744 10.396 20.744C12.7544 20.744 14.9224 19.9432 16.646 18.5956V19.3915C16.646 19.704 16.7681 20.0018 16.9878 20.2216L21.856 25.0897C22.3149 25.5487 23.0571 25.5487 23.5112 25.0897L24.8931 23.7079C25.3521 23.2489 25.3521 22.5067 24.8979 22.0477ZM10.396 16.8378C6.94385 16.8378 4.146 14.0448 4.146 10.5878C4.146 7.13562 6.93896 4.33777 10.396 4.33777C13.8481 4.33777 16.646 7.13074 16.646 10.5878C16.646 14.0399 13.853 16.8378 10.396 16.8378Z" fill="#F9532C"/>
</g>
<defs>
<clipPath id="clip0_164_9">
<rect x="0.239746" y="0.431519" width="25" height="25" fill="white"/>
</clipPath>
</defs>
</svg>
