<svg width="498" height="112" viewBox="0 0 498 112" fill="none" xmlns="http://www.w3.org/2000/svg">
<path d="M201 28.9688H194V53.9688H201V28.9688Z" fill="#FF6400"/>
<path fill-rule="evenodd" clip-rule="evenodd" d="M233 41.5C233 59.4492 217.777 74 199 74C193.961 74 189.179 72.9522 184.877 71.0721V63.1719V40H192.2V66.1944C194.371 66.7392 196.65 67.0293 199 67.0293C213.75 67.0293 225.707 55.5994 225.707 41.5C225.707 35.7975 223.752 30.5317 220.446 26.2822V16.2796C228.106 22.2387 233 31.3231 233 41.5ZM178.6 57.978C174.665 53.5311 172.293 47.7804 172.293 41.5C172.293 27.4005 184.25 15.9706 199 15.9706C201.35 15.9706 203.629 16.2607 205.8 16.8055V42H213.123V13V11.9277C208.821 10.0477 204.039 9 199 9C180.223 9 165 23.5507 165 41.5C165 52.1328 170.342 61.573 178.6 67.5023V57.978Z" fill="#7A17BF"/>
<path d="M2.56177 60.0159L6.40445 59.0552V30.8756L2.56177 29.9149V28.9543H10.8876C14.7303 28.9543 16.6516 30.8756 16.6516 34.7183V59.0552L20.4943 60.0159V60.9766H2.56177V60.0159ZM10.8876 25.1116C9.60668 25.1116 8.53927 24.6846 7.68534 23.8307C6.83141 22.9768 6.40445 21.9094 6.40445 20.6285C6.40445 19.3476 6.83141 18.2802 7.68534 17.4262C8.53927 16.5723 9.60668 16.1453 10.8876 16.1453C12.1685 16.1453 13.2359 16.5723 14.0898 17.4262C14.9437 18.2802 15.3707 19.3476 15.3707 20.6285C15.3707 21.9094 14.9437 22.9768 14.0898 23.8307C13.2359 24.6846 12.1685 25.1116 10.8876 25.1116ZM24.3269 60.0159L28.1696 59.0552V30.8756L24.3269 29.9149V28.9543H30.091C32.61 28.9543 34.5954 29.7655 36.0471 31.388C36.6022 32.0284 37.0718 32.8183 37.4561 33.7576C38.0538 32.6475 38.7583 31.6868 39.5696 30.8756C41.4909 28.9543 43.8819 27.9936 46.7425 27.9936C49.1335 27.9936 51.2684 28.506 53.147 29.5307C55.0683 30.5127 56.5627 31.8149 57.6301 33.4374C58.6975 35.0598 59.2312 36.7677 59.2312 38.561V59.0552L63.0739 60.0159V60.9766H54.7481C50.9054 60.9766 48.9841 59.0552 48.9841 55.2125V38.561C48.9841 35.8711 48.4931 33.8217 47.5111 32.4127C46.5718 30.961 45.4617 30.2352 44.1808 30.2352C42.5583 30.2352 41.1066 31.0891 39.8257 32.7969C39.2707 33.5228 38.801 34.3767 38.4168 35.3587V59.0552L42.2594 60.0159V60.9766H24.3269V60.0159ZM80.0482 61.9372C77.5292 61.9372 75.2876 61.2968 73.3236 60.0159C71.3595 58.6923 69.8011 56.771 68.6483 54.2519C67.4955 51.6901 66.9191 48.5946 66.9191 44.9654C66.9191 39.5003 68.1786 35.316 70.6977 32.4127C73.2595 29.4666 76.6966 27.9936 81.0089 27.9936C83.0583 27.9936 84.8516 28.4206 86.3887 29.2745C87.0291 29.5734 87.6909 30.0003 88.374 30.5554V18.0667L84.5314 17.106V16.1453H92.8572C96.6998 16.1453 98.6212 18.0667 98.6212 21.9094V59.0552L102.464 60.0159V60.9766H96.6998C94.1381 60.9766 92.1527 60.1867 90.7437 58.6069C90.1459 57.9665 89.6763 57.1552 89.3347 56.1732C88.7797 57.2406 88.0752 58.2013 87.2212 59.0552C85.2999 60.9766 82.9089 61.9372 80.0482 61.9372ZM82.61 59.6957C84.1898 59.6957 85.6201 58.8417 86.901 57.1339C87.3707 56.4934 87.8617 55.6395 88.374 54.5721V32.4767C87.9044 32.0071 87.4134 31.5801 86.901 31.1958C85.7482 30.3419 84.6381 29.9149 83.5707 29.9149C81.7347 29.9149 80.3044 30.9823 79.2797 33.1172C78.2977 35.252 77.8067 39.2014 77.8067 44.9654C77.8067 50.4732 78.255 54.3159 79.1516 56.4934C80.0909 58.6283 81.2437 59.6957 82.61 59.6957ZM106.634 60.0159L110.477 59.0552V30.8756L106.634 29.9149V28.9543H114.96C118.803 28.9543 120.724 30.8756 120.724 34.7183V59.0552L124.567 60.0159V60.9766H106.634V60.0159ZM114.96 25.1116C113.679 25.1116 112.612 24.6846 111.758 23.8307C110.904 22.9768 110.477 21.9094 110.477 20.6285C110.477 19.3476 110.904 18.2802 111.758 17.4262C112.612 16.5723 113.679 16.1453 114.96 16.1453C116.241 16.1453 117.308 16.5723 118.162 17.4262C119.016 18.2802 119.443 19.3476 119.443 20.6285C119.443 21.9094 119.016 22.9768 118.162 23.8307C117.308 24.6846 116.241 25.1116 114.96 25.1116ZM140.888 61.9372C137.088 61.9372 134.163 61.126 132.114 59.5035C130.065 57.8811 129.04 55.8103 129.04 53.2912C129.04 51.6261 129.403 49.9822 130.129 48.3598C130.427 47.5912 130.812 46.8868 131.281 46.2463C133.032 45.8193 134.932 45.4351 136.981 45.0935C141.593 44.325 145.67 43.8553 149.214 43.6845V41.7632C149.214 37.0239 148.637 33.7576 147.485 31.9644C146.332 30.1711 144.56 29.2745 142.169 29.2745C141.272 29.2745 140.504 29.3812 139.863 29.5947L138.967 29.9149V39.5216L138.134 39.7138C137.451 39.7991 136.875 39.8418 136.405 39.8418C134.953 39.8418 133.779 39.4149 132.883 38.561C132.029 37.6643 131.602 36.4902 131.602 35.0385C131.602 33.0745 132.584 31.4093 134.548 30.043C136.554 28.6767 139.522 27.9936 143.45 27.9936C146.78 27.9936 149.641 28.5913 152.032 29.7868C154.466 30.9396 156.301 32.5621 157.54 34.6542C158.821 36.7037 159.461 39.0733 159.461 41.7632V59.0552L163.304 60.0159V60.9766H157.54C154.978 60.9766 152.993 60.1867 151.584 58.6069C150.986 57.9665 150.516 57.1552 150.175 56.1732C149.577 57.2406 148.872 58.2013 148.061 59.0552C146.14 60.9766 143.749 61.9372 140.888 61.9372ZM143.45 59.6957C145.03 59.6957 146.46 58.8417 147.741 57.1339C148.211 56.4934 148.702 55.6395 149.214 54.5721V45.2856C147.25 45.2856 145.371 45.3924 143.578 45.6059C142.254 45.7766 141.358 45.8834 140.888 45.9261C140.675 46.3957 140.461 47.0362 140.248 47.8474C139.821 49.4699 139.607 51.071 139.607 52.6508C139.607 55.0418 139.97 56.8137 140.696 57.9665C141.422 59.1193 142.34 59.6957 143.45 59.6957Z" fill="#FF6400"/>
<path d="M233.321 61.9883V60.9919L237.306 59.9956V17.4853L233.321 16.4889V15.4926H252.252V16.4889L248.266 17.4853V38.0762H262.547V17.4853L258.562 16.4889V15.4926H277.492V16.4889L273.507 17.4853V59.9956L277.492 60.9919V61.9883H258.562V60.9919L262.547 59.9956V39.7368H248.266V59.9956L252.252 60.9919V61.9883H233.321ZM301.049 62.9846C295.558 62.9846 291.24 61.4348 288.096 58.335C284.997 55.1911 283.447 50.8736 283.447 45.3827C283.447 39.8918 284.997 35.5964 288.096 32.4967C291.24 29.3527 295.558 27.7807 301.049 27.7807C306.54 27.7807 310.835 29.3527 313.935 32.4967C317.079 35.5964 318.651 39.8918 318.651 45.3827C318.651 50.8736 317.079 55.1911 313.935 58.335C310.835 61.4348 306.54 62.9846 301.049 62.9846ZM301.049 61.6562C302.82 61.6562 304.303 60.4163 305.499 57.9365C306.739 55.4567 307.359 51.2721 307.359 45.3827C307.359 39.4932 306.739 35.3086 305.499 32.8288C304.303 30.3491 302.82 29.1092 301.049 29.1092C299.277 29.1092 297.772 30.3491 296.532 32.8288C295.336 35.3086 294.739 39.4932 294.739 45.3827C294.739 51.2721 295.336 55.4567 296.532 57.9365C297.772 60.4163 299.277 61.6562 301.049 61.6562ZM323.988 60.9919L327.973 59.9956V17.4853L323.988 16.4889V15.4926H332.623C336.608 15.4926 338.601 17.4853 338.601 21.4706V59.9956L342.586 60.9919V61.9883H323.988V60.9919ZM346.561 60.9919L350.546 59.9956V30.7697L346.561 29.7734V28.7771H355.196C359.181 28.7771 361.174 30.7697 361.174 34.7551V59.9956L365.159 60.9919V61.9883H346.561V60.9919ZM355.196 24.7917C353.867 24.7917 352.76 24.3489 351.875 23.4633C350.989 22.5776 350.546 21.4706 350.546 20.1422C350.546 18.8137 350.989 17.7067 351.875 16.821C352.76 15.9354 353.867 15.4926 355.196 15.4926C356.524 15.4926 357.631 15.9354 358.517 16.821C359.403 17.7067 359.845 18.8137 359.845 20.1422C359.845 21.4706 359.403 22.5776 358.517 23.4633C357.631 24.3489 356.524 24.7917 355.196 24.7917ZM382.751 62.9846C380.138 62.9846 377.813 62.3204 375.776 60.9919C373.739 59.6192 372.123 57.6265 370.928 55.0139C369.732 52.357 369.134 49.1466 369.134 45.3827C369.134 39.7146 370.441 35.375 373.053 32.3639C375.71 29.3085 379.275 27.7807 383.747 27.7807C385.873 27.7807 387.732 28.2235 389.327 29.1092C389.991 29.4192 390.677 29.862 391.386 30.4376V17.4853L387.4 16.4889V15.4926H396.035C400.021 15.4926 402.013 17.4853 402.013 21.4706V59.9956L405.999 60.9919V61.9883H400.021C397.364 61.9883 395.305 61.1691 393.843 59.5307C393.223 58.8664 392.736 58.0251 392.382 57.0066C391.806 58.1136 391.076 59.11 390.19 59.9956C388.197 61.9883 385.718 62.9846 382.751 62.9846ZM385.408 60.6598C387.046 60.6598 388.53 59.7742 389.858 58.0029C390.345 57.3387 390.854 56.4531 391.386 55.346V32.4303C390.899 31.9432 390.389 31.5004 389.858 31.1019C388.662 30.2162 387.511 29.7734 386.404 29.7734C384.5 29.7734 383.016 30.8804 381.954 33.0945C380.935 35.3086 380.426 39.4047 380.426 45.3827C380.426 51.095 380.891 55.0803 381.821 57.3387C382.795 59.5528 383.991 60.6598 385.408 60.6598ZM423.276 62.9846C419.335 62.9846 416.302 62.1433 414.176 60.4606C412.051 58.7779 410.988 56.6302 410.988 54.0176C410.988 52.2906 411.365 50.5858 412.117 48.9031C412.427 48.106 412.826 47.3753 413.313 46.7111C415.128 46.2683 417.099 45.8698 419.224 45.5155C424.007 44.7185 428.236 44.2314 431.911 44.0542V42.0616C431.911 37.1463 431.313 33.7588 430.118 31.8989C428.922 30.0391 427.084 29.1092 424.605 29.1092C423.675 29.1092 422.878 29.2199 422.214 29.4413L421.284 29.7734V39.7368L420.42 39.936C419.712 40.0246 419.114 40.0689 418.627 40.0689C417.121 40.0689 415.903 39.6261 414.973 38.7404C414.088 37.8105 413.645 36.5928 413.645 35.0872C413.645 33.0502 414.663 31.3233 416.7 29.9063C418.782 28.4892 421.859 27.7807 425.933 27.7807C429.387 27.7807 432.354 28.4007 434.834 29.6406C437.358 30.8362 439.262 32.5189 440.546 34.6887C441.875 36.8142 442.539 39.2718 442.539 42.0616V59.9956L446.524 60.9919V61.9883H440.546C437.889 61.9883 435.83 61.1691 434.369 59.5307C433.749 58.8664 433.262 58.0251 432.908 57.0066C432.288 58.1136 431.557 59.11 430.716 59.9956C428.723 61.9883 426.243 62.9846 423.276 62.9846ZM425.933 60.6598C427.572 60.6598 429.055 59.7742 430.383 58.0029C430.871 57.3387 431.38 56.4531 431.911 55.346V45.7148C429.874 45.7148 427.926 45.8255 426.066 46.0469C424.693 46.224 423.763 46.3347 423.276 46.379C423.055 46.8661 422.833 47.5303 422.612 48.3717C422.169 50.0544 421.948 51.7149 421.948 53.3534C421.948 55.8331 422.324 57.6708 423.077 58.8664C423.83 60.062 424.782 60.6598 425.933 60.6598ZM456.55 76.2691C454.557 76.2691 453.007 75.7377 451.9 74.675C450.793 73.6122 450.24 72.1509 450.24 70.2911C450.24 68.6084 450.682 67.3021 451.568 66.3722C452.498 65.4422 453.716 64.9773 455.221 64.9773C455.576 64.9773 455.93 64.9994 456.284 65.0437C456.638 65.1323 456.882 65.1766 457.015 65.1766L457.878 65.3094V74.2764C459.162 74.055 460.292 73.3465 461.266 72.1509C462.24 70.9553 463.325 68.8962 464.52 65.9736L465.849 62.6525L448.579 30.7697L445.258 29.7734V28.7771H453.561C455.863 28.7771 457.679 29.2642 459.007 30.2384C460.38 31.1683 461.554 32.5631 462.528 34.423L470.831 49.7666L477.805 31.7661L472.823 29.7734V28.7771H485.111V29.7734L479.798 31.7661L466.513 65.9736C465.096 69.6047 463.591 72.2173 461.996 73.8115C460.402 75.4499 458.587 76.2691 456.55 76.2691Z" fill="#FF6400"/>
<path d="M12 90.5H181" stroke="#E35B04"/>
<path d="M302 90.5H472" stroke="#FF6400"/>
<path d="M196.291 96L193.319 85.1279H194.656L196.928 93.9827H197.035L199.349 85.1279H200.836L203.15 93.9827H203.256L205.528 85.1279H206.866L203.893 96H202.534L200.135 87.3363H200.05L197.65 96H196.291ZM210.421 85.1279V96H209.104V85.1279H210.421ZM213.064 86.2958V85.1279H221.218V86.2958H217.799V96H216.483V86.2958H213.064ZM223.848 96V85.1279H225.165V89.9694H230.962V85.1279H232.278V96H230.962V91.1373H225.165V96H223.848ZM243.669 96H240.314V85.1279H243.818C244.873 85.1279 245.775 85.3456 246.525 85.7809C247.276 86.2127 247.851 86.8338 248.251 87.6442C248.651 88.4511 248.851 89.4173 248.851 90.5427C248.851 91.6752 248.649 92.6503 248.245 93.4678C247.842 94.2818 247.254 94.9082 246.483 95.347C245.711 95.7823 244.773 96 243.669 96ZM241.631 94.8321H243.584C244.483 94.8321 245.228 94.6587 245.819 94.3119C246.41 93.965 246.851 93.4713 247.141 92.8307C247.431 92.1902 247.576 91.4275 247.576 90.5427C247.576 89.665 247.433 88.9094 247.146 88.2759C246.86 87.6389 246.432 87.1505 245.862 86.8108C245.292 86.4675 244.582 86.2958 243.733 86.2958H241.631V94.8321ZM251.657 96V85.1279H255.33C256.18 85.1279 256.877 85.273 257.422 85.5632C257.967 85.8499 258.371 86.2445 258.632 86.7471C258.894 87.2496 259.025 87.8212 259.025 88.4617C259.025 89.1023 258.894 89.6703 258.632 90.1658C258.371 90.6613 257.969 91.0506 257.427 91.3337C256.886 91.6133 256.194 91.7531 255.352 91.7531H252.379V90.564H255.309C255.89 90.564 256.357 90.479 256.711 90.3091C257.068 90.1393 257.327 89.8986 257.486 89.5872C257.649 89.2722 257.73 88.897 257.73 88.4617C257.73 88.0264 257.649 87.646 257.486 87.3204C257.323 86.9948 257.063 86.7435 256.705 86.5666C256.348 86.3861 255.875 86.2958 255.288 86.2958H252.973V96H251.657ZM256.774 91.1161L259.45 96H257.921L255.288 91.1161H256.774ZM263.134 85.1279V96H261.817V85.1279H263.134ZM266.817 85.1279L270.045 94.28H270.172L273.4 85.1279H274.78L270.788 96H269.429L265.437 85.1279H266.817ZM277.072 96V85.1279H283.633V86.2958H278.388V89.9694H283.293V91.1373H278.388V94.8321H283.718V96H277.072ZM286.604 96V85.1279H290.278C291.127 85.1279 291.824 85.273 292.369 85.5632C292.914 85.8499 293.318 86.2445 293.579 86.7471C293.841 87.2496 293.972 87.8212 293.972 88.4617C293.972 89.1023 293.841 89.6703 293.579 90.1658C293.318 90.6613 292.916 91.0506 292.374 91.3337C291.833 91.6133 291.141 91.7531 290.299 91.7531H287.326V90.564H290.256C290.837 90.564 291.304 90.479 291.658 90.3091C292.015 90.1393 292.274 89.8986 292.433 89.5872C292.596 89.2722 292.677 88.897 292.677 88.4617C292.677 88.0264 292.596 87.646 292.433 87.3204C292.27 86.9948 292.01 86.7435 291.652 86.5666C291.295 86.3861 290.823 86.2958 290.235 86.2958H287.92V96H286.604ZM291.721 91.1161L294.397 96H292.868L290.235 91.1161H291.721Z" fill="#7A17BF"/>
</svg>
