<svg width="25" height="25" viewBox="0 0 25 25" fill="none" xmlns="http://www.w3.org/2000/svg">
<g clip-path="url(#clip0_116_10)">
<path d="M12.5 0.390625C5.81201 0.390625 0.390625 5.81201 0.390625 12.5C0.390625 19.188 5.81201 24.6094 12.5 24.6094C19.188 24.6094 24.6094 19.188 24.6094 12.5C24.6094 5.81201 19.188 0.390625 12.5 0.390625ZM20.3125 10.9131V11.2515C20.3125 11.5381 20.1504 11.8003 19.894 11.9282L19.1426 12.3042C19.0232 12.3639 18.8902 12.391 18.757 12.3827C18.6239 12.3744 18.4953 12.3309 18.3843 12.2568L17.4951 11.6641C17.3992 11.6002 17.29 11.559 17.1757 11.5437C17.0615 11.5284 16.9453 11.5393 16.8359 11.5757L16.7065 11.6187C16.2329 11.7764 16.0396 12.3408 16.3164 12.7563L16.9629 13.7261C17.103 13.9365 17.3394 14.063 17.5923 14.063H17.9932C18.4111 14.063 18.75 14.4019 18.75 14.8198V15.3735C18.75 15.5371 18.6968 15.6968 18.5986 15.8276L17.6836 17.0474C17.6143 17.1401 17.5669 17.2476 17.5454 17.3613L17.3354 18.4761C17.3052 18.6367 17.2236 18.7832 17.103 18.894C16.6403 19.3178 16.2304 19.7959 15.8823 20.3179L15.2461 21.2725C15.1224 21.4581 14.9547 21.6103 14.758 21.7156C14.5614 21.8208 14.3417 21.8759 14.1187 21.876C13.6055 21.876 13.1362 21.5859 12.9067 21.127C12.6392 20.5919 12.5 20.002 12.5 19.4038V17.9443C12.5 17.5264 12.1611 17.1875 11.7432 17.1875H10.4795C9.77197 17.1875 9.09375 16.9062 8.59326 16.4062C8.09315 15.9059 7.81215 15.2275 7.81201 14.52V13.8335C7.81201 12.9941 8.20752 12.2036 8.87891 11.6997L10.2256 10.6895C10.6874 10.3432 11.249 10.1559 11.8262 10.1558H11.8696C12.2837 10.1558 12.6924 10.252 13.0625 10.4375L13.7812 10.7969C13.9609 10.8867 14.1685 10.9014 14.3589 10.8379L16.6689 10.0679C16.978 9.96484 17.1865 9.67578 17.1865 9.3501C17.1865 8.93213 16.8477 8.59326 16.4297 8.59326H15.937C15.7363 8.59326 15.5439 8.51367 15.4019 8.37158L15.064 8.03369C14.9937 7.9634 14.9103 7.90764 14.8184 7.8696C14.7266 7.83156 14.6282 7.812 14.5288 7.81201H10.1318C9.71387 7.81201 9.375 7.47315 9.375 7.05518V6.84033C9.375 6.49316 9.61133 6.19043 9.94824 6.10596L10.6538 5.92969C10.8364 5.88379 10.9956 5.77197 11.1001 5.61523L11.4946 5.02393C11.6348 4.81348 11.8711 4.68701 12.124 4.68701H13.3062C13.7241 4.68701 14.063 4.34814 14.063 3.93018V2.87061C17.9312 3.49756 21.0381 6.39746 21.9692 10.1562H21.0693C20.6514 10.1562 20.3125 10.4951 20.3125 10.9131Z" fill="black"/>
</g>
<defs>
<clipPath id="clip0_116_10">
<rect width="25" height="25" fill="white"/>
</clipPath>
</defs>
</svg>
